<svg xmlns="http://www.w3.org/2000/svg" viewBox="0 0 320 80">
  <defs><linearGradient id="g" x1="0" y1="0" x2="1" y2="1"><stop offset="0" stop-color="#ff2b4d"/><stop offset="1" stop-color="#9bdcff"/></linearGradient></defs>
  <g>
    <path d="M40 20c12 0 18 8 22 16 4 8 12 14 26 12-6 10-20 12-32 10-18-3-28-14-30-30-1-6 4-8 14-8z" fill="url(#g)" opacity=".9"/>
    <polygon points="220,10 230,40 260,40 236,58 245,88 220,70 195,88 204,58 180,40 210,40" fill="#fff" opacity=".9" transform="translate(20,-10)"/>
    <text x="20" y="70" font-family="Foglihten, Georgia, serif" font-size="36" fill="url(#g)" style="letter-spacing:3px">STAR</text>
    <text x="150" y="70" font-family="Foglihten, Georgia, serif" font-size="36" fill="#ffffff" style="letter-spacing:3px">DUCKS</text>
  </g>
</svg>